<mxfile host="Electron" modified="2023-11-05T12:10:52.663Z" agent="Mozilla/5.0 (Windows NT 10.0; Win64; x64) AppleWebKit/537.36 (KHTML, like Gecko) draw.io/22.0.3 Chrome/114.0.5735.289 Electron/25.8.4 Safari/537.36" etag="5O31xCH52GDb4s-UzbWU" version="22.0.3" type="device">
  <diagram name="Sayfa -1" id="uAGNIbuCWmAL07L7FA3f">
    <mxGraphModel dx="1036" dy="606" grid="1" gridSize="10" guides="1" tooltips="1" connect="1" arrows="1" fold="1" page="1" pageScale="1" pageWidth="827" pageHeight="1169" math="0" shadow="0">
      <root>
        <mxCell id="0" />
        <mxCell id="1" parent="0" />
        <mxCell id="g7vydl3DRhIIlPpYnhcF-3" style="edgeStyle=orthogonalEdgeStyle;rounded=0;orthogonalLoop=1;jettySize=auto;html=1;entryX=0.5;entryY=0;entryDx=0;entryDy=0;" edge="1" parent="1" source="g7vydl3DRhIIlPpYnhcF-1" target="g7vydl3DRhIIlPpYnhcF-2">
          <mxGeometry relative="1" as="geometry" />
        </mxCell>
        <mxCell id="g7vydl3DRhIIlPpYnhcF-1" value="start" style="ellipse;whiteSpace=wrap;html=1;" vertex="1" parent="1">
          <mxGeometry x="354" y="10" width="120" height="80" as="geometry" />
        </mxCell>
        <mxCell id="g7vydl3DRhIIlPpYnhcF-4" style="edgeStyle=orthogonalEdgeStyle;rounded=0;orthogonalLoop=1;jettySize=auto;html=1;" edge="1" parent="1" source="g7vydl3DRhIIlPpYnhcF-2" target="g7vydl3DRhIIlPpYnhcF-5">
          <mxGeometry relative="1" as="geometry">
            <mxPoint x="414" y="270" as="targetPoint" />
          </mxGeometry>
        </mxCell>
        <mxCell id="g7vydl3DRhIIlPpYnhcF-2" value="bir sayi giriniz,n" style="shape=parallelogram;perimeter=parallelogramPerimeter;whiteSpace=wrap;html=1;fixedSize=1;" vertex="1" parent="1">
          <mxGeometry x="354" y="140" width="120" height="60" as="geometry" />
        </mxCell>
        <mxCell id="g7vydl3DRhIIlPpYnhcF-6" value="T" style="edgeStyle=orthogonalEdgeStyle;rounded=0;orthogonalLoop=1;jettySize=auto;html=1;" edge="1" parent="1" source="g7vydl3DRhIIlPpYnhcF-5">
          <mxGeometry relative="1" as="geometry">
            <mxPoint x="630" y="400" as="targetPoint" />
          </mxGeometry>
        </mxCell>
        <mxCell id="g7vydl3DRhIIlPpYnhcF-7" value="F" style="edgeStyle=orthogonalEdgeStyle;rounded=0;orthogonalLoop=1;jettySize=auto;html=1;" edge="1" parent="1" source="g7vydl3DRhIIlPpYnhcF-5">
          <mxGeometry relative="1" as="geometry">
            <mxPoint x="230" y="400" as="targetPoint" />
          </mxGeometry>
        </mxCell>
        <mxCell id="g7vydl3DRhIIlPpYnhcF-5" value="n%2==0" style="rhombus;whiteSpace=wrap;html=1;" vertex="1" parent="1">
          <mxGeometry x="374" y="250" width="80" height="80" as="geometry" />
        </mxCell>
        <mxCell id="g7vydl3DRhIIlPpYnhcF-12" style="edgeStyle=orthogonalEdgeStyle;rounded=0;orthogonalLoop=1;jettySize=auto;html=1;" edge="1" parent="1" target="g7vydl3DRhIIlPpYnhcF-10">
          <mxGeometry relative="1" as="geometry">
            <mxPoint x="239.5" y="585" as="targetPoint" />
            <mxPoint x="239.5" y="455" as="sourcePoint" />
            <Array as="points">
              <mxPoint x="240" y="440" />
              <mxPoint x="440" y="440" />
            </Array>
          </mxGeometry>
        </mxCell>
        <mxCell id="g7vydl3DRhIIlPpYnhcF-8" value="n==tek sayıdır" style="shape=document;whiteSpace=wrap;html=1;boundedLbl=1;" vertex="1" parent="1">
          <mxGeometry x="180" y="400" width="120" height="80" as="geometry" />
        </mxCell>
        <mxCell id="g7vydl3DRhIIlPpYnhcF-13" style="edgeStyle=orthogonalEdgeStyle;rounded=0;orthogonalLoop=1;jettySize=auto;html=1;entryX=0.5;entryY=0;entryDx=0;entryDy=0;" edge="1" parent="1" source="g7vydl3DRhIIlPpYnhcF-9" target="g7vydl3DRhIIlPpYnhcF-10">
          <mxGeometry relative="1" as="geometry" />
        </mxCell>
        <mxCell id="g7vydl3DRhIIlPpYnhcF-9" value="n==çift sayıdır" style="shape=document;whiteSpace=wrap;html=1;boundedLbl=1;" vertex="1" parent="1">
          <mxGeometry x="580" y="400" width="120" height="80" as="geometry" />
        </mxCell>
        <mxCell id="g7vydl3DRhIIlPpYnhcF-10" value="finish" style="ellipse;whiteSpace=wrap;html=1;" vertex="1" parent="1">
          <mxGeometry x="380" y="530" width="120" height="80" as="geometry" />
        </mxCell>
      </root>
    </mxGraphModel>
  </diagram>
</mxfile>
